# xmcd
#
# Track frame offsets: 
#        150
#        8812
#        25202
#        34382
#        46840
#        59930
#        75672
#        85850
#        98855
#        108400
#        125370
#        137005
#        153230
#        162097
#        182959
#        193080
#        207300
#        227080
#        236347
#        252490
#
# Disc length: 3563 seconds
#
# Revision: 0
# Processed by: cddbd v1.4PL0 Copyright (c) Steve Scherf et al.
# Submitted via: ExactAudioCopy v0.90b2
#
DISCID=0e0de914
DTITLE=Various Artist - Hymns of Our Faith Volume One
DYEAR=1999
DGENRE=Gospel
TTITLE0=Sweet Bye And Bye
TTITLE1=Church In The Wildwood
TTITLE2=Heaven's Jubilee
TTITLE3=Unclouded Day
TTITLE4=At The Cross
TTITLE5=Living By Faith
TTITLE6=Oh What A Happy Day
TTITLE7=Let The Lower Lights Be Burning
TTITLE8=Send The Light
TTITLE9=Somebody Touched Me
TTITLE10='Tis So Sweet To Trust In Jesus
TTITLE11=Peace In The Valley
TTITLE12=I'll Fly Away
TTITLE13=Farther Along
TTITLE14=I Am Thine O Lord
TTITLE15=Will The Circle Be Unbroken
TTITLE16=Oh What A Savior
TTITLE17=When We All Get To Heaven
TTITLE18=Where Could I Go
TTITLE19=Softly And Tenderly
EXTD=
EXTT0=
EXTT1=
EXTT2=
EXTT3=
EXTT4=
EXTT5=
EXTT6=
EXTT7=
EXTT8=
EXTT9=
EXTT10=
EXTT11=
EXTT12=
EXTT13=
EXTT14=
EXTT15=
EXTT16=
EXTT17=
EXTT18=
EXTT19=
PLAYORDER=
